<?xml version="1.0" encoding="utf-8"?>
<!-- Generator: Adobe Illustrator 18.0.0, SVG Export Plug-In . SVG Version: 6.00 Build 0)  -->
<!DOCTYPE svg PUBLIC "-//W3C//DTD SVG 1.1//EN" "http://www.w3.org/Graphics/SVG/1.1/DTD/svg11.dtd">
<svg version="1.1" xmlns="http://www.w3.org/2000/svg" xmlns:xlink="http://www.w3.org/1999/xlink" x="0px" y="0px"
	 viewBox="0 0 729.6 4461" enable-background="new 0 0 729.6 4461" xml:space="preserve">
<g id="bkgd-imgs">
</g>
<g id="bkgd-sections">
</g>
<g id="path">
	<path fill="none" stroke="#49FFBF" stroke-width="5" stroke-miterlimit="10" stroke-dasharray="29.876,16.93" d="M443.4,4460.7c7.6-66.9-31.8-108.4-75.9-159.2c-94.7-108.9,3.2-226.6,117-301.5c71.7-47.1-4.7-223.8-144-327c-167-123.8,39-154.5,15-234c-24.1-80-184.5,31.5-219-37.5c-40.6-81.1,286.5-133.5,255.3-216.1c-39.7-105.2-343.4,119.4-384.3,33.1c-27-57,56.7-111,216-168c121.5-43.5,275.3-167.2,348-382c66.3-196.1-237.8-161.5-360.2-342.6C42,2075.7,117.4,1730.7,363,1730.7c141,0,219,102,219,183c0,116.6-76.2,238.5-217.2,238.5c-169.3,0-281.3-142.6-276.3-333c5.5-206.7,205.1-145.7,200.6-531.7C286.7,1075.7,18,902.6,18,758.6c0-261.5,213.5-488.8,325.1-494.8c138.6-7.5,194.1,53.3,271.3,16.5c76.8-36.6,112.6-99.9,112.6-170.4c0-50.9-30.9-100.2-46.1-107.6"/>
</g>
<g id="text_x2F_sm-imgs">
</g>
<g id="mocks">
</g>
</svg>
